<svg width="150" height="48" viewBox="0 0 150 48" fill="none" xmlns="http://www.w3.org/2000/svg">
<path d="M28.8621 44.3657H0L14.6897 26.6743C16 25.0629 17.1379 23.6571 18 22.4914C18.8621 21.3257 19.5517 20.3657 20 19.5771C20.8966 18.1371 21.3103 16.8343 21.3103 15.7714C21.3103 14.1943 20.7586 12.8914 19.6552 11.8286C18.5172 10.7657 17.1724 10.2171 15.4828 10.2171C11.9655 10.2171 10.069 12.2057 9.55172 16.4229L9.44828 17.1771H1.93103L2.03448 16.2514C3.03448 7.61143 7.51724 3.25714 15.3448 3.25714C19.1034 3.25714 22.3103 4.45714 24.8621 6.85714C27.4483 9.25714 28.7586 12.2743 28.7586 15.8057C28.7586 18.0343 28.1379 20.2629 26.9655 22.4229C26.3793 23.52 25.5172 24.7886 24.3793 26.2629C23.2759 27.7029 21.8621 29.4514 20.1724 31.44L15.2759 37.2H28.8276V44.3657H28.8621ZM3.58621 42.6857H27.1379V38.88H11.6207L18.8621 30.3429C20.5172 28.3886 21.931 26.6743 23 25.2343C24.069 23.8286 24.8966 22.5943 25.4483 21.6C26.5172 19.7143 27.0345 17.76 27.0345 15.8057C27.0345 12.72 25.931 10.1829 23.6552 8.09143C21.3793 5.96571 18.6552 4.93714 15.2759 4.93714C8.65517 4.93714 4.86207 8.4 3.7931 15.4971H7.96552C9 9.77143 12.6207 8.53714 15.5172 8.53714C17.6207 8.53714 19.4138 9.22286 20.8621 10.5943C22.3103 11.9657 23.0345 13.7143 23.0345 15.7371C23.0345 17.1429 22.5172 18.72 21.4828 20.4343C21 21.2571 20.3103 22.2857 19.3793 23.4857C18.4828 24.6857 17.3448 26.0914 16 27.7371L3.58621 42.6857Z" fill="black"/>
<path d="M45.5862 45.0857C42 45.0857 38.9655 44.0229 36.6207 41.8629C34.3104 39.7371 32.8621 36.7543 32.2759 32.9486L32.1724 32.1601L39.8276 30.4801L39.931 31.4058C40.2414 34.0458 40.7931 35.2114 41.1724 35.7257C42.2414 37.2 43.7586 37.92 45.7931 37.92C47.4138 37.92 48.7241 37.4057 49.7586 36.3428C50.8276 35.28 51.3448 33.9429 51.3448 32.2972C51.3448 31.6458 51.2414 31.0286 51.069 30.4801C50.8966 29.9658 50.6207 29.4515 50.2414 29.0058C49.8621 28.5601 49.3448 28.1143 48.6897 27.7029C48.0345 27.2572 47.2069 26.8458 46.2759 26.4686L42.5173 24.9258C36.8621 22.5601 34 18.9601 34 14.2972C34 11.1429 35.2414 8.46864 37.6552 6.34293C40.0345 4.2515 43.0345 3.15435 46.5862 3.15435C51.3793 3.15435 55.1724 5.48578 57.8621 10.1144L58.2759 10.8344L52.0345 14.5029L51.6207 13.7486C50.6207 12.0001 49.8276 11.3144 49.3793 11.0401C48.6552 10.5601 47.6897 10.3544 46.5517 10.3544C45.1035 10.3544 43.9655 10.7315 43.0345 11.5201C42.1379 12.2744 41.7241 13.1658 41.7241 14.2972C41.7241 15.8401 42.931 17.0744 45.4483 18.1029L49.3448 19.6801C52.6207 21.0172 55.1035 22.6629 56.6207 24.5829C58.2069 26.5715 59 29.0058 59 31.8515C59 35.6229 57.7241 38.8114 55.1724 41.3143C52.5862 43.8171 49.3448 45.0857 45.5862 45.0857ZM34.069 33.4972C34.6552 36.5486 35.8966 38.9486 37.7586 40.6286C39.7931 42.48 42.4138 43.4057 45.5862 43.4057C48.9655 43.4057 51.6897 42.3428 53.9655 40.1143C56.2069 37.92 57.3104 35.2457 57.3104 31.8858C57.3104 29.4172 56.6207 27.3258 55.3104 25.6801C53.931 23.9658 51.7241 22.4915 48.6897 21.2915L44.7931 19.7144C41.6207 18.4115 40.0345 16.6286 40.0345 14.3658C40.0345 12.7544 40.6897 11.3829 41.9655 10.3201C43.2069 9.25721 44.7586 8.74292 46.5862 8.74292C48.069 8.74292 49.3104 9.0515 50.3104 9.66864C51.1035 10.1144 51.8621 10.9715 52.6897 12.2401L56 10.2858C53.6552 6.6515 50.5862 4.90293 46.6207 4.90293C43.5173 4.90293 40.8966 5.82864 38.8276 7.64578C36.7586 9.46292 35.7586 11.6572 35.7586 14.3315C35.7586 18.3086 38.2069 21.2915 43.2414 23.4172L47 24.9601C48.0345 25.4058 48.931 25.8515 49.6552 26.3658C50.4138 26.8801 51.069 27.4286 51.5862 28.0115C52.1035 28.6286 52.4828 29.2801 52.7241 30.0343C52.9655 30.7543 53.069 31.5429 53.069 32.3658C53.069 34.4571 52.3793 36.24 51 37.6114C49.6207 38.9828 47.8966 39.7029 45.8276 39.7029C43.2414 39.7029 41.2069 38.7429 39.8276 36.8571C39.1724 36 38.6897 34.6286 38.3793 32.6743L34.069 33.4972Z" fill="black"/>
<path d="M96.069 44.3657H85.9655L72.2414 27.5314L71.9311 27.84V44.4H64.3448V3.90854H71.9311V18.1714L85.9311 3.90854H96.2069L77.6552 22.3543L96.069 44.3657ZM86.7931 42.6857H92.4828L75.4138 22.2514L92.138 5.58854H86.6897L70.2759 22.2857V5.58854H66.069V42.6857H70.2759V27.12L72.4138 25.0285L86.7931 42.6857Z" fill="black"/>
<path d="M106.276 44.3657H98.6897V3.90854H106.276V44.3657ZM100.379 42.6857H104.586V5.58854H100.379V42.6857Z" fill="black"/>
<path d="M150 48L121.552 18.48V44.4H113.966V0L142.414 29.5886V3.87429H150V48ZM119.828 14.2629L148.276 43.7829V5.58857H144.069V33.8057L115.621 4.21714V42.72H119.828V14.2629Z" fill="black"/>
</svg>
