<svg width="34" height="42" viewBox="0 0 34 42" fill="none" xmlns="http://www.w3.org/2000/svg">
<path d="M33.4806 40.5274L30.5925 10.1977C30.5319 9.56277 30.0465 9.08065 29.4676 9.08065H24.0392V7.71582C24.0392 3.46147 20.9003 0 17.0423 0C13.1841 0 10.0452 3.46147 10.0452 7.71582V9.08065H4.61682C4.03786 9.08065 3.55254 9.56277 3.49194 10.1977L0.603797 40.5274C0.570456 40.8787 0.673956 41.2295 0.888205 41.4923C1.10274 41.7547 1.40831 41.9047 1.72867 41.9047H32.3554C32.6761 41.9047 32.9817 41.7547 33.1959 41.4923C33.4107 41.2295 33.5139 40.8787 33.4806 40.5274ZM12.3071 7.71582C12.3071 4.83685 14.4314 2.49436 17.0423 2.49436C19.653 2.49436 21.7773 4.83685 21.7773 7.71582V9.08065H12.3071V7.71582ZM2.98459 39.4103L5.63529 11.575H10.0452V14.3235C10.0452 15.0122 10.5517 15.5707 11.1762 15.5707C11.8007 15.5707 12.3071 15.0122 12.3071 14.3235V11.575H21.7773V14.3235C21.7773 15.0122 22.2837 15.5707 22.9082 15.5707C23.5327 15.5707 24.0392 15.0122 24.0392 14.3235V11.575H28.4491L31.0998 39.4103H2.98459Z" fill="black"/>
</svg>
