<svg width="24" height="26" viewBox="0 0 24 26" fill="none" xmlns="http://www.w3.org/2000/svg">
<g clip-path="url(#clip0)">
<path d="M15.3101 9.0733C14.9997 9.0733 14.748 9.33585 14.748 9.6598V20.7446C14.748 21.0683 14.9997 21.3311 15.3101 21.3311C15.6206 21.3311 15.8722 21.0683 15.8722 20.7446V9.6598C15.8722 9.33585 15.6206 9.0733 15.3101 9.0733Z" fill="black"/>
<path d="M8.67827 9.0733C8.36782 9.0733 8.11621 9.33585 8.11621 9.6598V20.7446C8.11621 21.0683 8.36782 21.3311 8.67827 21.3311C8.98872 21.3311 9.24033 21.0683 9.24033 20.7446V9.6598C9.24033 9.33585 8.98872 9.0733 8.67827 9.0733Z" fill="black"/>
<path d="M3.84439 7.45559V21.9056C3.84439 22.7597 4.14452 23.5618 4.66881 24.1373C5.19069 24.7144 5.91698 25.042 6.67708 25.0434H17.3114C18.0717 25.042 18.798 24.7144 19.3197 24.1373C19.844 23.5618 20.1441 22.7597 20.1441 21.9056V7.45559C21.1863 7.16693 21.8617 6.11627 21.7223 5.00033C21.5826 3.88461 20.6717 3.05 19.5932 3.04977H16.7155V2.31665C16.7188 1.70014 16.4852 1.10814 16.067 0.672624C15.6487 0.237333 15.0805 -0.0050547 14.4897 -1.44919e-05H9.49879C8.90797 -0.0050547 8.33976 0.237333 7.92151 0.672624C7.50326 1.10814 7.26965 1.70014 7.27295 2.31665V3.04977H4.39525C3.3168 3.05 2.40587 3.88461 2.26623 5.00033C2.12681 6.11627 2.80216 7.16693 3.84439 7.45559ZM17.3114 23.8704H6.67708C5.71609 23.8704 4.9685 23.009 4.9685 21.9056V7.50714H19.02V21.9056C19.02 23.009 18.2724 23.8704 17.3114 23.8704ZM8.39707 2.31665C8.39333 2.01126 8.50838 1.71732 8.71608 1.50174C8.92356 1.28615 9.2059 1.16771 9.49879 1.17298H14.4897C14.7826 1.16771 15.0649 1.28615 15.2724 1.50174C15.4801 1.71709 15.5952 2.01126 15.5914 2.31665V3.04977H8.39707V2.31665ZM4.39525 4.22276H19.5932C20.152 4.22276 20.6049 4.69539 20.6049 5.27845C20.6049 5.86151 20.152 6.33415 19.5932 6.33415H4.39525C3.83648 6.33415 3.38354 5.86151 3.38354 5.27845C3.38354 4.69539 3.83648 4.22276 4.39525 4.22276Z" fill="black"/>
<path d="M11.9942 9.0733C11.6837 9.0733 11.4321 9.33585 11.4321 9.6598V20.7446C11.4321 21.0683 11.6837 21.3311 11.9942 21.3311C12.3046 21.3311 12.5562 21.0683 12.5562 20.7446V9.6598C12.5562 9.33585 12.3046 9.0733 11.9942 9.0733Z" fill="black"/>
</g>
<defs>
<clipPath id="clip0">
<rect width="24" height="25.0435" fill="white"/>
</clipPath>
</defs>
</svg>
