<svg width="15" height="28" viewBox="0 0 15 28" xmlns="http://www.w3.org/2000/svg"><path d="M0.947388 16.2598H3.88505V27.1238C3.88505 27.6068 4.27589 27.9988 4.76005 27.9988L9.43489 28C9.91905 28 10.3099 27.6068 10.3099 27.125V16.261H13.0947C13.5357 16.261 13.9079 15.932 13.9627 15.4945L14.5437 10.8278C14.6091 10.3075 14.2019 9.84433 13.6757 9.84433H10.3099C10.4417 6.96149 9.80239 6.10866 11.6772 6.10866C12.9466 5.95699 14.9486 6.59983 14.9486 5.23366V1.06049C14.9486 0.622992 14.6254 0.253159 14.1926 0.193659C13.8262 0.143492 12.3784 -7.62939e-06 10.5829 -7.62939e-06C2.40455 -7.62939e-06 4.08805 9.06733 3.88622 9.84316H0.947388C0.464388 9.84316 0.0723877 10.2352 0.0723877 10.7182V15.3848C0.0723877 15.8678 0.464388 16.2598 0.947388 16.2598ZM1.82239 11.5943H4.76005C5.24305 11.5943 5.63505 11.2023 5.63505 10.7193V7.04316C5.63505 3.67966 7.43755 1.75116 10.5817 1.75116C11.6061 1.75116 12.5487 1.80133 13.1974 1.85266V4.35983C12.7284 4.59899 8.55872 3.32849 8.55872 7.50633V10.7205C8.55872 11.2035 8.95072 11.5955 9.43372 11.5955H12.6841L12.3201 14.5122H9.43372C8.95072 14.5122 8.55872 14.9042 8.55872 15.3872V26.25H5.63622V15.386C5.63622 14.903 5.24422 14.511 4.76122 14.511H1.82239V11.5943Z"/></svg>
