<svg width="25" height="25" viewBox="0 0 25 25" xmlns="http://www.w3.org/2000/svg">
<g clip-path="url(#clip0)">
<path d="M12.5042 6.08125C8.95939 6.08125 6.0896 8.95416 6.0896 12.4958C6.0896 16.0406 8.96252 18.9104 12.5042 18.9104C16.049 18.9104 18.9188 16.0375 18.9188 12.4958C18.9188 8.95104 16.0458 6.08125 12.5042 6.08125ZM12.5042 16.6594C10.2031 16.6594 8.34064 14.7958 8.34064 12.4958C8.34064 10.1958 10.2042 8.33229 12.5042 8.33229C14.8042 8.33229 16.6677 10.1958 16.6677 12.4958C16.6688 14.7958 14.8052 16.6594 12.5042 16.6594Z" />
<path d="M17.6542 0.0791668C15.3542 -0.028125 9.65728 -0.0229166 7.3552 0.0791668C5.33228 0.173959 3.54791 0.6625 2.10937 2.10104C-0.294799 4.50521 0.0124926 7.7448 0.0124926 12.4958C0.0124926 17.3583 -0.258341 20.5229 2.10937 22.8906C4.52291 25.3031 7.80937 24.9875 12.5042 24.9875C17.3208 24.9875 18.9833 24.9906 20.6864 24.3313C23.0021 23.4323 24.75 21.3625 24.9208 17.6448C25.0292 15.3438 25.0229 9.64792 24.9208 7.34584C24.7146 2.95729 22.3594 0.295834 17.6542 0.0791668ZM21.2948 21.3C19.7187 22.8761 17.5323 22.7354 12.474 22.7354C7.26562 22.7354 5.17708 22.8125 3.65312 21.2844C1.89791 19.5375 2.21562 16.7323 2.21562 12.4792C2.21562 6.72396 1.62499 2.57917 7.40103 2.28333C8.72812 2.23646 9.11874 2.22083 12.4594 2.22083L12.5062 2.25208C18.0573 2.25208 22.4125 1.67083 22.674 7.44584C22.7333 8.76355 22.7469 9.15938 22.7469 12.4948C22.7458 17.6427 22.8437 19.7438 21.2948 21.3Z" />
<path d="M19.1729 7.32709C20.0008 7.32709 20.6719 6.65598 20.6719 5.82813C20.6719 5.00027 20.0008 4.32917 19.1729 4.32917C18.3451 4.32917 17.674 5.00027 17.674 5.82813C17.674 6.65598 18.3451 7.32709 19.1729 7.32709Z" />
</g>
<defs>
<clipPath id="clip0">
<rect width="25" height="25" fill="white"/>
</clipPath>
</defs>
</svg>
