<svg width="31" height="20" viewBox="0 0 31 20" fill="none" xmlns="http://www.w3.org/2000/svg">
<path d="M15.6873 19.375C20.172 19.375 18.5729 16.6275 18.919 15.8375C18.9139 15.2475 18.9087 14.68 18.9294 14.335C19.2135 14.4125 19.8839 14.7412 21.2686 16.0437C23.4063 18.1312 23.9527 19.375 25.6796 19.375H28.8584C29.8659 19.375 30.3903 18.9712 30.6525 18.6325C30.9057 18.305 31.1537 17.73 30.8825 16.835C30.1733 14.68 26.0374 10.9587 25.7804 10.5662C25.8191 10.4937 25.8811 10.3975 25.9134 10.3475H25.9108C26.7272 9.30375 29.8427 4.78625 30.3012 2.97875C30.3025 2.97625 30.3038 2.9725 30.3038 2.96875C30.5518 2.14375 30.3245 1.60875 30.0894 1.30625C29.7355 0.85375 29.1723 0.625 28.4115 0.625H25.2327C24.1684 0.625 23.3611 1.14375 22.9529 2.09C22.2696 3.77125 20.3502 7.22875 18.9113 8.4525C18.8674 6.71875 18.8971 5.395 18.9203 4.41125C18.9668 2.4925 19.1167 0.625 17.059 0.625H12.0629C10.7738 0.625 9.54025 1.9875 10.8758 3.605C12.0435 5.0225 11.2956 5.8125 11.5475 9.745C10.5658 8.72625 8.8195 5.975 7.58467 2.45875C7.2385 1.5075 6.71408 0.62625 5.23771 0.62625H2.05892C0.769833 0.62625 0 1.30625 0 2.445C0 5.0025 5.84996 19.375 15.6873 19.375ZM5.23771 2.50125C5.518 2.50125 5.54642 2.50125 5.75437 3.0725C7.01892 6.67625 9.85542 12.0087 11.9272 12.0087C13.4837 12.0087 13.4837 10.465 13.4837 9.88375L13.4824 5.25625C13.3972 3.725 12.8211 2.9625 12.4426 2.5L16.9738 2.505C16.9764 2.52625 16.948 7.62375 16.9867 8.85875C16.9867 10.6125 18.4256 11.6175 20.6718 9.4175C23.042 6.82875 24.6812 2.95875 24.747 2.80125C24.8439 2.57625 24.9279 2.5 25.2327 2.5H28.4115H28.4244C28.4231 2.50375 28.4231 2.5075 28.4218 2.51125C28.1312 3.82375 25.2624 8.00625 24.3027 9.305C24.2872 9.325 24.273 9.34625 24.2588 9.3675C23.8364 10.035 23.4928 10.7725 24.3169 11.81H24.3182C24.3931 11.8975 24.5882 12.1025 24.8723 12.3875C25.7558 13.27 28.7861 16.2875 29.0547 17.4875C28.8765 17.515 28.6828 17.495 25.6796 17.5012C25.0403 17.5012 24.5404 16.5762 22.6326 14.7137C20.9172 13.0987 19.8038 12.4387 18.7899 12.4387C16.8214 12.4387 16.9647 13.985 16.9828 15.855C16.9893 17.8825 16.9764 17.2412 16.9906 17.3687C16.8756 17.4125 16.5462 17.5 15.6873 17.5C7.49167 17.5 2.1545 4.91125 1.94912 2.505C2.02017 2.49875 2.99796 2.5025 5.23771 2.50125Z" fill="black"/>
</svg>
